<mxfile host="app.diagrams.net" modified="2024-05-17T06:59:07.726Z" agent="Mozilla/5.0 (X11; Linux x86_64) AppleWebKit/537.36 (KHTML, like Gecko) Chrome/124.0.0.0 Safari/537.36" version="24.4.3" etag="EeVILGZZ2pJT2b-CBMbk" type="github">
  <diagram name="第 1 页" id="PMfHX9TlzL6Y4th1x__k">
    <mxGraphModel>
      <root>
        <mxCell id="0" />
        <mxCell id="1" parent="0" />
      </root>
    </mxGraphModel>
  </diagram>
</mxfile>
